<?xml version="1.0" encoding="utf-8"?>
<!-- Generator: Adobe Illustrator 16.0.0, SVG Export Plug-In . SVG Version: 6.00 Build 0)  -->
<!DOCTYPE svg PUBLIC "-//W3C//DTD SVG 1.1//EN" "http://www.w3.org/Graphics/SVG/1.1/DTD/svg11.dtd">
<svg version="1.1" id="Layer_1" xmlns="http://www.w3.org/2000/svg" xmlns:xlink="http://www.w3.org/1999/xlink" x="0px" y="0px"
	 viewBox="0 0 500 500" enable-background="new 0 0 500 500" xml:space="preserve">
<path d="M498.389,498.133l-13.203-37.185L370.286,346.049c8.673-14.763,16.214-30.78,22.539-47.993
	c16.408-44.655,24.729-97.457,24.729-156.938v-15.304h-15.305c-1.101,0-2.186-0.023-3.273-0.041l34.903-34.904
	c1.171,0.896,2.297,1.878,3.367,2.951c10.375,10.372,12.497,25.867,6.386,38.347c12.354,5.694,27.467,3.454,37.648-6.727
	c10.181-10.183,12.421-25.292,6.726-37.646c-12.479,6.111-27.973,3.987-38.347-6.388c-1.069-1.072-2.053-2.195-2.948-3.366
	l27.252-27.255c7.688,5.341,21.104,0.592,23.48-1.784c3.673-3.674-3.691-16.99-16.446-29.741
	C468.243,6.503,454.928-0.86,451.256,2.812c-2.376,2.378-7.125,15.792-1.786,23.482l-27.252,27.251
	c-1.172-0.896-2.299-1.878-3.37-2.947c-10.374-10.376-12.497-25.867-6.385-38.348c-12.353-5.694-27.467-3.455-37.646,6.726
	c-10.181,10.183-12.421,25.294-6.726,37.647c12.479-6.112,27.971-3.988,38.345,6.384c1.071,1.071,2.055,2.2,2.948,3.37
	l-53.595,53.594c-72.856-19.024-105.792-78.036-105.792-78.036s-32.188,59.185-105.703,78.121L90.615,66.377
	c0.894-1.17,1.877-2.299,2.949-3.37c10.373-10.372,25.864-12.496,38.344-6.384c5.696-12.354,3.456-27.465-6.726-37.647
	C115.004,8.795,99.889,6.556,87.536,12.25c6.113,12.48,3.989,27.972-6.385,38.348c-1.071,1.069-2.198,2.052-3.37,2.947L50.53,26.294
	c5.338-7.69,0.59-21.104-1.786-23.482C45.071-0.86,31.757,6.503,19.002,19.26C6.247,32.011-1.116,45.327,2.556,49.001
	c2.377,2.376,15.793,7.125,23.481,1.784L53.289,78.04c-0.896,1.171-1.879,2.294-2.949,3.366
	c-10.374,10.375-25.866,12.499-38.346,6.388c-5.696,12.354-3.455,27.464,6.726,37.646c10.181,10.181,25.294,12.421,37.647,6.727
	c-6.111-12.479-3.988-27.975,6.387-38.347c1.07-1.073,2.195-2.056,3.367-2.951l34.904,34.904c-1.089,0.018-2.174,0.041-3.275,0.041
	H82.446v15.304c0,59.48,8.319,112.282,24.728,156.938c6.325,17.213,13.865,33.23,22.538,47.993L14.814,460.948L1.611,498.133
	l37.696-12.689l110.278-110.278c4.201,5.303,8.583,10.387,13.152,15.233c40.774,43.255,82.084,53.162,83.823,53.564l3.437,0.79
	l3.437-0.79c1.738-0.402,43.051-10.31,83.825-53.564c4.569-4.848,8.951-9.933,13.152-15.233l110.28,110.278L498.389,498.133z
	 M314.987,369.403c-27.587,29.264-55.353,40.464-64.989,43.682c-9.636-3.218-37.401-14.418-64.987-43.682
	c-20.673-21.931-37.195-49.487-49.106-81.903c-13.81-37.585-21.419-81.79-22.666-131.59c66.949-4.482,111.436-37.471,136.926-64.252
	c25.653,26.715,70.26,59.717,136.598,64.241c-1.247,49.8-8.856,94.014-22.667,131.599
	C352.184,319.916,335.661,347.471,314.987,369.403z"/>
</svg>
