<?xml version="1.0" encoding="iso-8859-1"?>
<!-- Generator: Adobe Illustrator 18.0.0, SVG Export Plug-In . SVG Version: 6.00 Build 0)  -->
<!DOCTYPE svg PUBLIC "-//W3C//DTD SVG 1.1//EN" "http://www.w3.org/Graphics/SVG/1.1/DTD/svg11.dtd">
<svg version="1.1" id="Capa_1" xmlns="http://www.w3.org/2000/svg" xmlns:xlink="http://www.w3.org/1999/xlink" x="0px" y="0px"
	 viewBox="0 0 79.39 95.658" style="enable-background:new 0 0 79.39 95.658;" xml:space="preserve">
<path d="M79.353,16.022c-0.029-1.266-0.936-2.358-2.203-2.531c-5.905-0.811-11.729-2.222-17.438-4.313
	c-5.682-2.081-11.969-4.986-18.75-8.812c-0.861-0.486-1.671-0.489-2.531,0C31.697,4.19,25.455,7.089,19.728,9.178
	c-5.711,2.083-11.532,3.503-17.39,4.313c-1.267,0.175-2.156,1.265-2.297,2.531c-0.562,24.046,4.705,43.721,15.75,59.015
	c6.017,8.331,13.547,15.093,22.64,20.249c0.703,0.516,1.805,0.477,2.625,0C50.08,90.044,57.6,83.331,63.603,75.037
	C74.663,59.753,79.887,40.069,79.353,16.022z M59.384,72.084c-5.218,7.208-11.765,13.218-19.687,18.046
	c-7.922-4.828-14.5-10.816-19.687-18.046C9.962,58.079,5.057,40.162,5.244,18.319c5.531-0.891,11.016-2.391,16.5-4.407
	c5.484-2.015,11.484-4.781,17.953-8.296c6.469,3.515,12.422,6.281,17.906,8.296c5.484,2.016,11.015,3.516,16.547,4.407
	C74.337,40.303,69.401,58.245,59.384,72.084z"/>
<g>
</g>
<g>
</g>
<g>
</g>
<g>
</g>
<g>
</g>
<g>
</g>
<g>
</g>
<g>
</g>
<g>
</g>
<g>
</g>
<g>
</g>
<g>
</g>
<g>
</g>
<g>
</g>
<g>
</g>
</svg>
