<?xml version="1.0" encoding="iso-8859-1"?>
<!-- Generator: Adobe Illustrator 16.0.0, SVG Export Plug-In . SVG Version: 6.00 Build 0)  -->
<!DOCTYPE svg PUBLIC "-//W3C//DTD SVG 1.1//EN" "http://www.w3.org/Graphics/SVG/1.1/DTD/svg11.dtd">
<svg version="1.1" id="Layer_1" xmlns="http://www.w3.org/2000/svg" xmlns:xlink="http://www.w3.org/1999/xlink" x="0px" y="0px"
	 width="31.123px" height="30.424px" viewBox="0 0 31.123 30.424" style="enable-background:new 0 0 31.123 30.424;"
	 xml:space="preserve">
<g>
	<path d="M3.195,17.538c0,0,0.589-1.382-0.406-2.824c-0.996-1.442-2.501-1.694-2.501-1.694s-0.647,1.633,0.323,3.038
		C1.582,17.465,3.195,17.538,3.195,17.538z"/>
	<path d="M10.068,25.178c0,0,1.367-0.861,1.518-2.562c0.148-1.701-1.221-2.802-1.221-2.802s-1.184,0.961-1.338,2.708
		C8.874,24.27,10.068,25.178,10.068,25.178z"/>
	<path d="M13.691,27.915c0,0,1.062-1.219,0.716-2.891c-0.348-1.675-1.976-2.333-1.976-2.333s-0.857,1.264-0.502,2.979
		S13.691,27.915,13.691,27.915z"/>
	<path d="M4.113,21.036c0,0,0.154-1.491-1.221-2.576c-1.377-1.086-2.889-0.883-2.889-0.883s-0.139,1.751,1.203,2.808
		C2.549,21.443,4.113,21.036,4.113,21.036z"/>
	<path d="M6.198,24.326c0,0-0.182-1.49-1.763-2.242c-1.584-0.753-3.013-0.219-3.013-0.219s0.255,1.737,1.796,2.471
		C4.763,25.068,6.198,24.326,6.198,24.326z"/>
	<path d="M6.357,25.232c-1.736-0.237-2.938,0.703-2.938,0.703s0.77,1.579,2.462,1.813c1.692,0.231,2.834-0.911,2.834-0.911
		S8.094,25.471,6.357,25.232z"/>
	<path d="M9.799,27.869c-1.752-0.027-2.83,1.05-2.83,1.05s0.951,1.478,2.659,1.505c1.709,0.026,2.706-1.244,2.706-1.244
		S11.553,27.897,9.799,27.869z"/>
	<path d="M4.802,14.882l-0.82-0.167c-0.018,0.089-1.979,8.781,10.864,14.993l0.363-0.753C2.98,23.042,4.733,15.221,4.802,14.882z"/>
	<path d="M5.881,17.704c0,0,1.523-0.533,2.049-2.16c0.527-1.624-0.563-3.002-0.563-3.002s-1.368,0.674-1.909,2.342
		C4.919,16.55,5.881,17.704,5.881,17.704z"/>
	<path d="M6.521,19.502c-0.316,1.725,0.787,2.742,0.787,2.742s1.442-0.729,1.752-2.408c0.307-1.682-0.953-2.903-0.953-2.903
		S6.84,17.777,6.521,19.502z"/>
	<path d="M4.374,13.944c0,0,1.258-0.821,1.229-2.573c-0.027-1.752-1.14-2.798-1.14-2.798S3.02,9.571,3.047,11.281
		C3.074,12.989,4.374,13.944,4.374,13.944z"/>
	<path d="M22.09,13.905c0-0.99,0.055-8.198,0.055-8.198l0.005-0.579L21.61,4.921c-0.058-0.021-0.907-0.334-2.428-0.582l1.142-4.248
		l-2.853,2.32L15.593,0.01V0l-0.004,0.005L15.585,0v0.01l-1.88,2.401l-2.852-2.32l1.14,4.244c-1.555,0.249-2.423,0.569-2.48,0.591
		L8.974,5.133l0.005,0.579c0,0,0.055,7.208,0.055,8.198c0,1.495,2.234,5.768,6.491,5.889V19.8c0.002,0,0.004,0,0.006-0.001
		c0.023,0.001,0.045,0.006,0.068,0.006v-0.011C19.855,19.672,22.09,15.4,22.09,13.905z M15.524,6.976V6.98h-4.866V6.645h4.94V6.64
		h4.866v0.336H15.524z"/>
	<path d="M27.928,17.533c0,0,1.613-0.073,2.584-1.48c0.971-1.405,0.323-3.038,0.323-3.038s-1.505,0.252-2.501,1.694
		C27.339,16.151,27.928,17.533,27.928,17.533z"/>
	<path d="M20.758,19.81c0,0-1.369,1.101-1.221,2.802c0.15,1.7,1.518,2.562,1.518,2.562s1.194-0.908,1.041-2.655
		C21.941,20.771,20.758,19.81,20.758,19.81z"/>
	<path d="M16.716,25.02c-0.346,1.672,0.716,2.891,0.716,2.891s1.406-0.528,1.762-2.244s-0.502-2.979-0.502-2.979
		S17.063,23.345,16.716,25.02z"/>
	<path d="M31.119,17.572c0,0-1.512-0.203-2.889,0.883c-1.375,1.085-1.221,2.576-1.221,2.576s1.564,0.407,2.906-0.651
		C31.258,19.323,31.119,17.572,31.119,17.572z"/>
	<path d="M26.688,22.079c-1.581,0.752-1.763,2.242-1.763,2.242s1.436,0.742,2.979,0.01c1.541-0.733,1.796-2.471,1.796-2.471
		S28.271,21.326,26.688,22.079z"/>
	<path d="M24.766,25.228c-1.736,0.238-2.358,1.604-2.358,1.604s1.142,1.143,2.834,0.911c1.692-0.233,2.462-1.813,2.462-1.813
		S26.502,24.99,24.766,25.228z"/>
	<path d="M18.789,29.175c0,0,0.997,1.271,2.706,1.244c1.708-0.027,2.659-1.505,2.659-1.505s-1.078-1.077-2.83-1.05
		C19.57,27.893,18.789,29.175,18.789,29.175z"/>
	<path d="M27.142,14.71l-0.82,0.167c0.068,0.339,1.509,8.379-10.392,14.104l0.363,0.753C28.809,23.71,27.159,14.799,27.142,14.71z"
		/>
	<path d="M25.242,17.699c0,0,0.962-1.154,0.423-2.82c-0.541-1.668-1.909-2.342-1.909-2.342s-1.09,1.378-0.563,3.002
		C23.719,17.166,25.242,17.699,25.242,17.699z"/>
	<path d="M22.063,19.831c0.31,1.679,1.752,2.408,1.752,2.408s1.104-1.018,0.787-2.742c-0.318-1.725-1.586-2.569-1.586-2.569
		S21.756,18.149,22.063,19.831z"/>
	<path d="M26.749,13.939c0,0,1.3-0.955,1.327-2.663c0.027-1.71-1.417-2.708-1.417-2.708s-1.112,1.046-1.14,2.798
		C25.491,13.118,26.749,13.939,26.749,13.939z"/>
</g>
<g>
</g>
<g>
</g>
<g>
</g>
<g>
</g>
<g>
</g>
<g>
</g>
<g>
</g>
<g>
</g>
<g>
</g>
<g>
</g>
<g>
</g>
<g>
</g>
<g>
</g>
<g>
</g>
<g>
</g>
</svg>
