<?xml version="1.0" encoding="iso-8859-1"?>
<!-- Generator: Adobe Illustrator 17.0.0, SVG Export Plug-In . SVG Version: 6.00 Build 0)  -->
<!DOCTYPE svg PUBLIC "-//W3C//DTD SVG 1.1//EN" "http://www.w3.org/Graphics/SVG/1.1/DTD/svg11.dtd">
<svg version="1.1" id="Capa_1" xmlns="http://www.w3.org/2000/svg" xmlns:xlink="http://www.w3.org/1999/xlink" x="0px" y="0px"
	 width="40px" height="40px" viewBox="0 0 64 64" style="enable-background:new 0 0 64 64;" xml:space="preserve">
<g>
	<path d="M31.931,62.631c0.065,0.376,0.078,0.599,0.078,0.599v-1.001c0.57-2.633,3.185-9.649,14.936-10.98
		c14.527-1.646,12.074-35.125,12.074-35.125s-6.603,0-6.603-6.559c0-5.739-15.736-6.591-19.674-6.591
		c-0.407,0-0.687,0.009-0.812,0.023c-0.125-0.014-0.406-0.023-0.812-0.023c-3.936,0-19.674,0.852-19.674,6.591
		c0,6.559-6.603,6.559-6.603,6.559S2.39,49.603,16.917,51.249c11.752,1.331,14.366,8.348,14.936,10.98v1.001
		C31.853,63.23,31.866,63.008,31.931,62.631z M29.711,51.914c-4.492-3.417-10.058-4.381-12.344-4.64
		C10.059,46.446,8.414,29.74,8.688,19.41c0.402-0.144,0.818-0.317,1.235-0.524c3.462-1.72,5.412-4.896,5.518-8.97
		c1.442-1.368,8.483-2.942,15.678-2.942c0.188,0,0.337,0.001,0.437,0.006l0.374,0.041l0.375-0.041
		c0.101-0.005,0.249-0.006,0.437-0.006c7.195,0,14.236,1.574,15.678,2.942c0.106,4.074,2.056,7.251,5.518,8.97
		c0.418,0.208,0.833,0.38,1.235,0.524c0.274,10.331-1.372,27.036-8.679,27.864c-2.286,0.259-7.852,1.223-12.344,4.64l-2.22-12.946
		L29.711,51.914z"/>
</g>
</svg>
