<?xml version="1.0" encoding="iso-8859-1"?>
<!-- Generator: Adobe Illustrator 16.0.0, SVG Export Plug-In . SVG Version: 6.00 Build 0)  -->
<!DOCTYPE svg PUBLIC "-//W3C//DTD SVG 1.1//EN" "http://www.w3.org/Graphics/SVG/1.1/DTD/svg11.dtd">
<svg version="1.1" id="Layer_1" xmlns="http://www.w3.org/2000/svg" xmlns:xlink="http://www.w3.org/1999/xlink" x="0px" y="0px"
	 width="31.639px" height="26.384px" viewBox="0 0 31.639 26.384" style="enable-background:new 0 0 31.639 26.384; background-color: white;"
	 xml:space="preserve">
<g>
	<path d="M3.195,13.499c0,0,0.589-1.382-0.406-2.824C1.793,9.232,0.288,8.979,0.288,8.979s-0.647,1.634,0.323,3.038
		C1.582,13.426,3.195,13.499,3.195,13.499z"/>
	<path d="M5.881,13.664c0,0,1.523-0.533,2.049-2.16C8.457,9.88,7.367,8.503,7.367,8.503s-1.368,0.673-1.909,2.341
		C4.919,12.511,5.881,13.664,5.881,13.664z"/>
	<path d="M6.521,15.463c-0.316,1.724,0.787,2.741,0.787,2.741s1.441-0.729,1.752-2.408c0.307-1.682-0.953-2.903-0.953-2.903
		S6.84,13.738,6.521,15.463z"/>
	<path d="M10.068,21.139c0,0,1.367-0.861,1.518-2.563c0.148-1.701-1.221-2.801-1.221-2.801s-1.184,0.961-1.338,2.707
		C8.874,20.229,10.068,21.139,10.068,21.139z"/>
	<path d="M13.691,23.875c0,0,1.062-1.219,0.716-2.891c-0.348-1.674-1.976-2.332-1.976-2.332s-0.857,1.263-0.502,2.979
		C12.285,23.348,13.691,23.875,13.691,23.875z"/>
	<path d="M4.374,9.905c0,0,1.257-0.821,1.229-2.574c-0.027-1.751-1.14-2.798-1.14-2.798S3.02,5.532,3.047,7.241
		C3.074,8.949,4.374,9.905,4.374,9.905z"/>
	<path d="M4.113,16.997c0,0,0.154-1.492-1.221-2.577c-1.377-1.086-2.889-0.883-2.889-0.883s-0.139,1.752,1.203,2.809
		C2.549,17.404,4.113,16.997,4.113,16.997z"/>
	<path d="M6.198,20.287c0,0-0.182-1.491-1.763-2.243c-1.584-0.753-3.013-0.218-3.013-0.218s0.255,1.737,1.796,2.47
		C4.763,21.029,6.198,20.287,6.198,20.287z"/>
	<path d="M6.357,21.193c-1.736-0.237-2.938,0.702-2.938,0.702s0.77,1.579,2.462,1.813c1.692,0.231,2.834-0.911,2.834-0.911
		S8.094,21.431,6.357,21.193z"/>
	<path d="M9.799,23.829c-1.752-0.027-2.83,1.05-2.83,1.05s0.951,1.478,2.659,1.505c1.709,0.027,2.706-1.244,2.706-1.244
		S11.553,23.858,9.799,23.829z"/>
	<path d="M4.802,10.842l-0.82-0.166c-0.018,0.089-1.667,9,11.177,15.211l0.363-0.752C3.293,19.221,4.733,11.182,4.802,10.842z"/>
	<path d="M22.605,9.865c0-0.99,0.055-8.198,0.055-8.198l0.005-0.578l-0.539-0.207C22.031,0.846,19.788,0,15.823,0
		c-0.006,0-0.01,0-0.016,0v0.005c-3.96,0.001-6.2,0.846-6.295,0.882L8.974,1.094l0.005,0.578c0,0,0.055,7.208,0.055,8.198
		c0,1.517,2.294,5.901,6.672,5.901c0.043,0,0.083-0.006,0.126-0.006v-0.004c0.034,0.002,0.067,0.005,0.103,0.005
		C20.312,15.767,22.605,11.382,22.605,9.865z M10.703,9.87c0-0.813-0.038-5.819-0.051-7.591c0.835-0.228,2.611-0.605,5.163-0.605
		c0.006,0,0.01,0,0.016,0V1.669c2.548,0.001,4.321,0.378,5.155,0.605c-0.013,1.771-0.051,6.777-0.051,7.591
		c-0.006,0.58-1.539,4.232-5.002,4.232c-0.043,0-0.083-0.005-0.126-0.006v0.006c-0.034,0.002-0.067,0.005-0.103,0.005
		C12.242,14.103,10.709,10.45,10.703,9.87z"/>
	<path d="M28.443,13.494c0,0,1.613-0.073,2.584-1.481c0.971-1.404,0.323-3.038,0.323-3.038s-1.505,0.253-2.501,1.695
		C27.854,12.112,28.443,13.494,28.443,13.494z"/>
	<path d="M25.758,13.659c0,0,0.962-1.153,0.423-2.82c-0.541-1.668-1.909-2.341-1.909-2.341s-1.09,1.377-0.563,3.001
		C24.234,13.126,25.758,13.659,25.758,13.659z"/>
	<path d="M22.578,15.791c0.311,1.68,1.752,2.408,1.752,2.408s1.104-1.018,0.787-2.741c-0.318-1.725-1.586-2.57-1.586-2.57
		S22.271,14.109,22.578,15.791z"/>
	<path d="M21.273,15.771c0,0-1.369,1.1-1.221,2.801c0.15,1.701,1.518,2.563,1.518,2.563s1.194-0.909,1.041-2.656
		C22.457,16.731,21.273,15.771,21.273,15.771z"/>
	<path d="M17.231,20.979c-0.346,1.672,0.716,2.891,0.716,2.891s1.406-0.527,1.762-2.244c0.355-1.716-0.502-2.979-0.502-2.979
		S17.579,19.306,17.231,20.979z"/>
	<path d="M27.265,9.9c0,0,1.3-0.956,1.327-2.664c0.027-1.709-1.417-2.708-1.417-2.708s-1.112,1.047-1.14,2.798
		C26.008,9.079,27.265,9.9,27.265,9.9z"/>
	<path d="M31.635,13.532c0,0-1.512-0.203-2.889,0.883c-1.375,1.085-1.221,2.577-1.221,2.577s1.564,0.407,2.906-0.651
		C31.773,15.284,31.635,13.532,31.635,13.532z"/>
	<path d="M27.203,18.039c-1.581,0.752-1.763,2.243-1.763,2.243s1.436,0.742,2.979,0.009c1.541-0.732,1.796-2.47,1.796-2.47
		S28.787,17.286,27.203,18.039z"/>
	<path d="M25.281,21.188c-1.736,0.237-2.358,1.604-2.358,1.604s1.142,1.143,2.834,0.911c1.692-0.233,2.462-1.813,2.462-1.813
		S27.018,20.951,25.281,21.188z"/>
	<path d="M19.305,25.135c0,0,0.997,1.271,2.706,1.244c1.708-0.027,2.659-1.505,2.659-1.505s-1.078-1.077-2.83-1.05
		C20.086,23.854,19.305,25.135,19.305,25.135z"/>
	<path d="M27.657,10.671l-0.82,0.166c0.068,0.34,1.509,8.379-10.72,14.293l0.363,0.752C29.324,19.671,27.675,10.76,27.657,10.671z"
		/>
</g>
<g>
</g>
<g>
</g>
<g>
</g>
<g>
</g>
<g>
</g>
<g>
</g>
<g>
</g>
<g>
</g>
<g>
</g>
<g>
</g>
<g>
</g>
<g>
</g>
<g>
</g>
<g>
</g>
<g>
</g>
</svg>
