<?xml version="1.0" encoding="utf-8"?>
<!-- Generator: Adobe Illustrator 16.0.0, SVG Export Plug-In . SVG Version: 6.00 Build 0)  -->
<!DOCTYPE svg PUBLIC "-//W3C//DTD SVG 1.1//EN" "http://www.w3.org/Graphics/SVG/1.1/DTD/svg11.dtd">
<svg version="1.1" id="Layer_1" xmlns="http://www.w3.org/2000/svg" xmlns:xlink="http://www.w3.org/1999/xlink" x="0px" y="0px"
	 width="64px" height="64px" viewBox="0 0 64 64" enable-background="new 0 0 64 64" xml:space="preserve">
<g>
	<path d="M54.785,45.76l-0.231,0.38l-0.43-0.11c-1.482-0.395-4.596-1.143-8.853-1.771l-0.618-0.091l0.121-0.614
		c0.15-0.789,0.288-1.581,0.411-2.377l-0.817-2.716c-0.202,1.677-0.466,3.347-0.792,5.001l-0.107,0.543l-0.551-0.067
		c-5.074-0.702-10.344-0.716-10.344-0.716v-2.973l-0.595-2.205l-0.563,2.207l-0.036,2.967c0,0-5.084-0.029-10.548,0.627
		l-0.553,0.067l-0.105-0.546c-0.321-1.648-0.581-3.316-0.782-4.989l-0.842,2.611c0.129,0.829,0.271,1.656,0.43,2.48l0.117,0.608
		l-0.614,0.094c-2.934,0.448-5.843,1.07-8.642,1.854l-0.437,0.12L9.17,45.755c-0.475-0.785-0.896-1.6-1.288-2.426h-1.32
		c4.348,9.716,14.102,16.505,25.417,16.505c11.313,0,21.068-6.789,25.418-16.505h-1.323C55.684,44.16,55.262,44.974,54.785,45.76z
		 M23.054,57.155l0.019-0.009l-1.276-0.531c-4.438-1.844-8.308-4.861-11.188-8.729l-0.527-0.705l0.851-0.227
		c2.51-0.668,5.158-1.21,7.868-1.614l0.55-0.081l0.124,0.539c0.77,3.392,1.816,6.771,3.107,10.046l0.51,1.294l0.146,0.065
		L23.054,57.155z M31.381,58.641l-0.623-0.026c-2.051-0.095-4.097-0.431-6.083-0.997l-0.123-0.034
		c-1.434-3.486-3.025-8.191-3.867-11.831l-0.15-0.652l0.661-0.075c3.096-0.363,6.323-0.556,9.586-0.565l0.599-0.004V58.641z
		 M33.201,58.613l-0.627,0.026V44.462l0.608,0.015c3.096,0.069,6.244,0.295,9.361,0.668l0.666,0.078l-0.152,0.648
		c-0.849,3.633-2.566,8.351-4.001,11.806C37.146,58.206,35.173,58.524,33.201,58.613z M53.329,47.919
		c-2.929,3.918-6.869,6.957-11.395,8.785l-1.165,0.473l0.03,0.014l-0.046,0.015l0.401-1.271c1.293-3.271,2.343-6.642,3.114-10.02
		l0.124-0.535l0.548,0.078c3.558,0.513,6.341,1.113,8.047,1.525l0.879,0.212L53.329,47.919z"/>
	<path d="M9.502,17.723l0.233-0.365l0.417,0.107c1.614,0.414,4.271,1.02,7.758,1.564l0.581,0.091l-0.08,0.581
		c-0.227,1.625-0.391,3.268-0.509,4.915h0.738h0.45c0.116-1.59,0.274-3.175,0.491-4.743l0.084-0.587l0.586,0.077
		c3.488,0.458,7.037,0.725,10.543,0.793l0.586,0.012v4.448h1.194v-4.438l0.592-0.006c3.563-0.02,7.05-0.248,10.373-0.676
		l0.587-0.073l0.084,0.585c0.209,1.522,0.359,3.063,0.47,4.607h0.698h0.494c-0.117-1.606-0.275-3.208-0.494-4.792l-0.08-0.579
		l0.579-0.093c2.647-0.421,5.306-0.997,7.9-1.709l0.425-0.117l0.237,0.372c2.032,3.185,3.351,6.771,3.89,10.488l0.735-2.587
		c-2.899-12.27-13.94-21.434-27.085-21.434c-13.072,0-24.062,9.061-27.037,21.23l0.7,2.695C6.191,24.412,7.496,20.874,9.502,17.723z
		 M43.81,8.138c3.527,1.757,6.688,4.332,9.13,7.449l0.566,0.715l-0.882,0.231c-2.196,0.57-4.528,1.052-6.93,1.429l-0.579,0.091
		l-0.102-0.58c-0.647-3.794-1.467-6.784-2.041-8.623l-0.416-1.335L43.81,8.138z M32.574,5.36l0.625,0.029
		c2.602,0.117,5.162,0.616,7.608,1.48l0.267,0.092l0.096,0.266c0.497,1.355,1.754,5.085,2.667,10.377l0.104,0.616l-0.618,0.076
		c-3.283,0.411-6.698,0.627-10.147,0.643l-0.601,0.001L32.574,5.36L32.574,5.36z M22.67,7.034l0.264-0.096
		c2.509-0.908,5.142-1.429,7.822-1.55l0.625-0.029v13.575l-0.61-0.015c-3.4-0.072-6.864-0.332-10.294-0.772l-0.617-0.079
		l0.107-0.616c0.864-4.962,2.007-8.492,2.609-10.154L22.67,7.034z M11.028,15.571c2.389-3.039,5.465-5.57,8.896-7.317l1.257-0.642
		l-0.417,1.349c-0.551,1.779-1.344,4.674-1.982,8.362L18.681,17.9l-0.577-0.089c-2.974-0.457-5.309-0.955-6.744-1.292l-0.914-0.212
		L11.028,15.571z"/>
	<path d="M9.08,34.1c0.487-1.497,0.921-2.936,1.266-4.607h0.06c0.344,1.641,0.747,3.025,1.237,4.58l2.13,6.651h2.304l4.494-13.938
		h-2.506l-1.988,6.997c-0.462,1.643-0.834,3.111-1.067,4.522h-0.085c-0.315-1.411-0.72-2.881-1.236-4.549l-2.164-6.97H9.396
		l-2.278,7.112c-0.459,1.499-0.92,2.994-1.236,4.405H5.793c-0.256-1.44-0.632-2.881-1.035-4.435l-1.842-7.085H0.324l4.204,13.938
		h2.304L9.08,34.1z"/>
	<path d="M36.565,38.304h-0.087c-0.315-1.409-0.721-2.88-1.238-4.548l-2.162-6.97h-2.126l-2.277,7.113
		c-0.46,1.497-0.924,2.995-1.239,4.404H27.35c-0.258-1.439-0.634-2.88-1.038-4.435l-1.845-7.083h-2.591l4.206,13.938h2.304
		l2.247-6.624c0.49-1.497,0.923-2.936,1.269-4.607h0.056c0.347,1.641,0.75,3.025,1.239,4.58l2.127,6.651h2.307l4.495-13.938h-2.508
		l-1.987,6.997C37.17,35.424,36.796,36.895,36.565,38.304z"/>
	<path d="M61.17,26.786l-1.987,6.997c-0.463,1.643-0.835,3.111-1.063,4.522h-0.087c-0.315-1.411-0.719-2.881-1.239-4.549l-2.16-6.97
		h-2.128l-2.275,7.112c-0.461,1.499-0.924,2.994-1.238,4.405h-0.088c-0.258-1.44-0.636-2.881-1.037-4.435l-1.843-7.084h-2.591
		l4.201,13.938h2.307l2.246-6.623c0.488-1.498,0.922-2.937,1.269-4.608h0.059c0.347,1.642,0.748,3.025,1.237,4.582l2.129,6.649
		h2.304l4.496-13.938H61.17L61.17,26.786z"/>
</g>
</svg>
